<svg width='600' height='600' xmlns='http://www.w3.org/2000/svg'>
<path d="M 260 15.000001 h 80 A 30.000002 15.000001 45 0 1 370 30.000002 v 40  A 30.000002 15.000001 -45 0 1 340 85 h -80 A 30.000002 15.000001 45 0 1 230 70 v -40  A 30.000002 15.000001 -45 0 1 260 15.000001 Z" stroke="black" fill="none"/>
<text x="284.88333" y="54" font-size="1em" fill="black" >Start</text>
<path d="M 230 115 h 140 v 70 h -140 L 230 115" stroke="black" fill="none"/>
<text x="239.02335" y="146" font-size="1em" fill="black" >Prepare for the day</text>
<text x="248.01666" y="162" font-size="1em" fill="black" >No more Delay!</text>
<path d="M 30.000002 215 h 140 v 70 h -140 L 30.000002 215" stroke="black" fill="none"/>
<text x="65.10834" y="254" font-size="1em" fill="black" >P2 Storage</text>
<path d="M 230 215 h 140 v 70 h -140 L 230 215" stroke="black" fill="none"/>
<text x="270" y="254" font-size="1em" fill="black" >Demo P3</text>
<path d="M 430 215 h 140 v 70 h -140 L 430 215" stroke="black" fill="none"/>
<text x="470" y="254" font-size="1em" fill="black" >Demo P4</text>
<path d="M 230 315 h 140 v 70 h -140 L 230 315" stroke="black" fill="none"/>
<text x="270" y="354" font-size="1em" fill="black" >P5 Demo</text>
<path d="M 430 315 h 140 v 70 h -140 L 430 315" stroke="black" fill="none"/>
<text x="440.44168" y="354" font-size="1em" fill="black" >Do something else</text>
<path d="M 260 415 h 80 A 30.000002 15.000001 45 0 1 370 430 v 40  A 30.000002 15.000001 -45 0 1 340 485 h -80 A 30.000002 15.000001 45 0 1 230 470 v -40  A 30.000002 15.000001 -45 0 1 260 415 Z" stroke="black" fill="none"/>
<text x="267.34167" y="454" font-size="1em" fill="black" >Good End</text>
<path d="M 300 85 L 300 115 L 297 107 L 303 107 L 300 115" fill="none" stroke="black" stroke-width="1" />
<path d="M 230 150 L 100 150 L 100 215 L 97 207 L 103 207 L 100 215" fill="none" stroke="black" stroke-width="1" />
<text x="102" y="146" fill="black" font-size="0.8em" font-family="sans-serif">Demo</text>
<path d="M 300 185 L 300 215 L 297 207 L 303 207 L 300 215" fill="none" stroke="black" stroke-width="1" />
<path d="M 370 138.33333 L 500 138.33333 L 500 215 L 497 207 L 503 207 L 500 215" fill="none" stroke="black" stroke-width="1" />
<text x="426.22665" y="134.33333" fill="black" font-size="0.8em" font-family="sans-serif">Right Above</text>
<path d="M 370 250 L 430 250 L 422 247 L 422 253 L 430 250" fill="none" stroke="black" stroke-width="1" />
<path d="M 300 285 L 300 315 L 297 307 L 303 307 L 300 315" fill="none" stroke="black" stroke-width="1" />
<path d="M 76.66667 285 L 76.66667 350 L 230 350 L 222 347 L 222 353 L 230 350" fill="none" stroke="black" stroke-width="1" />
<text x="78.66667" y="346" fill="black" font-size="0.8em" font-family="sans-serif">Demo P2</text>
<text x="40.000008" y="301" fill="black" font-size="0.8em" font-family="sans-serif">To P5</text>
<text x="177.53333" y="346" fill="black" font-size="0.8em" font-family="sans-serif">From P2</text>
<path d="M 300 285 L 300 315 L 297 307 L 303 307 L 300 315" fill="none" stroke="black" stroke-width="1" />
<path d="M 370 161.66667 L 397 161.66667 L 397 350 L 370 350 L 378 347 L 378 353 L 370 350" fill="none" stroke="black" stroke-width="1" />
<text x="372.29333" y="251.03334" fill="black" font-size="0.8em" font-family="sans-serif" text-anchor="start" transform="rotate(90,397,255.83334)">Rotate 90</text>
<text x="372" y="157.66667" fill="black" font-size="0.8em" font-family="sans-serif">To P5</text>
<path d="M 123.333336 285 L 123.333336 298.5 L 482.5 298.5 L 482.5 315 L 479.5 307 L 485.5 307 L 482.5 315" fill="none" stroke="black" stroke-width="1" />
<path d="M 500 285 L 500 315 L 497 307 L 503 307 L 500 315" fill="none" stroke="black" stroke-width="1" />
<path d="M 300 385 L 300 415 L 297 407 L 303 407 L 300 415" fill="none" stroke="black" stroke-width="1" />
<path d="M 500 385 L 500 450 L 370 450 L 378 447 L 378 453 L 370 450" fill="none" stroke="black" stroke-width="1" />
</svg>