<svg width='600' height='500' xmlns='http://www.w3.org/2000/svg'>
<path d="M 260 15.000001 h 80 A 30.000002 15.000001 45 0 1 370 30.000002 v 40  A 30.000002 15.000001 -45 0 1 340 85 h -80 A 30.000002 15.000001 45 0 1 230 70 v -40  A 30.000002 15.000001 -45 0 1 260 15.000001 Z" stroke="black" fill="none"/>
<text x="284.88333" y="54" font-size="1em" fill="black" >Start</text>
<path d="M 230 115 h 140 v 70 h -140 L 230 115" stroke="black" fill="none"/>
<text x="246.675" y="146" font-size="1em" fill="black" >What do you do </text>
<text x="267.775" y="162" font-size="1em" fill="black" >in holiday</text>
<path d="M 30.000002 215 h 140 v 70 h -140 L 30.000002 215" stroke="black" fill="none"/>
<text x="74.225" y="254" font-size="1em" fill="black" >Gaming</text>
<path d="M 430 215 h 140 v 70 h -140 L 430 215" stroke="black" fill="none"/>
<text x="479.11667" y="254" font-size="1em" fill="black" >Eating</text>
<path d="M 230 315 h 140 v 70 h -140 L 230 315" stroke="black" fill="none"/>
<text x="268.23334" y="354" font-size="1em" fill="black" >What else</text>
<path d="M 260 415 h 80 A 30.000002 15.000001 45 0 1 370 430 v 40  A 30.000002 15.000001 -45 0 1 340 485 h -80 A 30.000002 15.000001 45 0 1 230 470 v -40  A 30.000002 15.000001 -45 0 1 260 415 Z" stroke="black" fill="none"/>
<text x="287.11667" y="454" font-size="1em" fill="black" >End</text>
<path d="M 300 85 L 300 115 L 297 107 L 303 107 L 300 115" fill="none" stroke="black" stroke-width="1" />
<path d="M 230 150 L 100 150 L 100 215 L 97 207 L 103 207 L 100 215" fill="none" stroke="black" stroke-width="1" />
<path d="M 370 150 L 500 150 L 500 215 L 497 207 L 503 207 L 500 215" fill="none" stroke="black" stroke-width="1" />
<path d="M 300 185 L 300 315 L 297 307 L 303 307 L 300 315" fill="none" stroke="black" stroke-width="1" />
<path d="M 100 285 L 100 450 L 230 450 L 222 447 L 222 453 L 230 450" fill="none" stroke="black" stroke-width="1" />
<text x="102" y="446" fill="black" font-size="0.8em" font-family="sans-serif">any bug</text>
<path d="M 500 285 L 500 450 L 370 450 L 378 447 L 378 453 L 370 450" fill="none" stroke="black" stroke-width="1" />
<text x="433.33334" y="446" fill="black" font-size="0.8em" font-family="sans-serif">who knows</text>
<path d="M 300 385 L 300 415 L 297 407 L 303 407 L 300 415" fill="none" stroke="black" stroke-width="1" />
<text x="302" y="400" fill="black" font-size="0.8em" font-family="sans-serif">don&apos;t know</text>
</svg>